<svg xmlns="http://www.w3.org/2000/svg" viewBox="0 0 425.64 386.29"><defs><style>.cls-1{font-size:144px;font-family:SoybeanutFree-Brush, Soybeanut;}.cls-2{letter-spacing:-0.02em;}.cls-3{letter-spacing:0em;}.cls-4{font-size:30px;letter-spacing:0.15em;}.cls-4,.cls-5,.cls-6{font-family:LegendM54, Legend M54;}.cls-5{font-size:65px;fill:#fff;}.cls-6{font-size:26.71px;}.cls-7{fill:none;stroke:#000;stroke-miterlimit:10;stroke-width:5px;}</style></defs><title>Recurso 1</title><g id="Capa_2" data-name="Capa 2"><g id="Capa_1-2" data-name="Capa 1"><text class="cls-1" transform="matrix(1, -0.15, 0, 1, 6.18, 269.86)"><tspan class="cls-2">W</tspan><tspan x="158.98" y="0">alt</tspan><tspan class="cls-3" x="305.13" y="0">e</tspan><tspan x="355.96" y="0">r</tspan></text><polygon points="324.54 309.61 123.13 339.83 123.13 270 324.54 239.77 324.54 309.61"/><polygon points="399.89 302.81 332.8 312.88 332.8 249.5 399.89 239.43 378.06 275.24 399.89 302.81"/><polygon points="47.8 292.27 114.89 282.2 114.89 345.58 47.8 355.65 69.63 319.85 47.8 292.27"/><text class="cls-4" transform="matrix(1, -0.15, 0, 1, 143.86, 372.18)"><tspan xml:space="preserve">ESTd  1993</tspan></text><text class="cls-5" transform="matrix(1, -0.15, 0, 1, 158.78, 325.51)">REPO</text><text></text><text class="cls-6" transform="translate(68.13 152.02) rotate(-74.3)">f</text><text class="cls-6" transform="translate(72.34 137.52) rotate(-68.03)">r</text><text class="cls-6" transform="translate(79.07 121.39) rotate(-61.39)">o</text><text class="cls-6" transform="translate(87.46 106.42) rotate(-54.82)">n</text><text class="cls-6" transform="translate(97.59 92.43) rotate(-48.38)">t</text><text class="cls-6" transform="matrix(0.73, -0.69, 0.69, 0.73, 108.91, 80.14)"> </text><text class="cls-6" transform="translate(116.31 73.24) rotate(-38.42)">e</text><text class="cls-6" transform="translate(128.3 63.9) rotate(-32.19)">n</text><text class="cls-6" transform="matrix(0.9, -0.43, 0.43, 0.9, 143.01, 54.88)">d</text><text class="cls-6" transform="matrix(0.94, -0.35, 0.35, 0.94, 158.59, 47.78)"> </text><text class="cls-6" transform="matrix(0.97, -0.25, 0.25, 0.97, 168.02, 44.24)">a</text><text class="cls-6" transform="matrix(0.99, -0.14, 0.14, 0.99, 186.26, 39.7)">n</text><text class="cls-6" transform="translate(203.37 37.53) rotate(-1.43)">d</text><text class="cls-6" transform="translate(220.5 37.42) rotate(3.77)"> </text><text class="cls-6" transform="translate(230.52 37.9) rotate(10.21)">w</text><text class="cls-6" transform="translate(253.39 42.52) rotate(17.62)">e</text><text class="cls-6" transform="matrix(0.92, 0.4, -0.4, 0.92, 267.84, 47.26)">b</text><text class="cls-6" transform="translate(283.13 54.34) rotate(28.94)"> </text><text class="cls-6" transform="matrix(0.83, 0.56, -0.56, 0.83, 291.98, 59.23)">d</text><text class="cls-6" transform="translate(305.97 69.01) rotate(40.28)">e</text><text class="cls-6" transform="matrix(0.69, 0.72, -0.72, 0.69, 317.48, 78.95)">s</text><text class="cls-6" transform="translate(328.82 91.32) rotate(51.32)">i</text><text class="cls-6" transform="matrix(0.55, 0.83, -0.83, 0.55, 334.59, 98.49)">g</text><text class="cls-6" transform="matrix(0.46, 0.89, -0.89, 0.46, 343.83, 112.72)">n</text><path class="cls-7" d="M343.28,134.72A138,138,0,0,0,78,207.52"/></g></g></svg>